<svg width="33" height="33" viewBox="0 0 33 33" fill="none" xmlns="http://www.w3.org/2000/svg">
<path d="M1.68054 23.75V15C1.68054 11.519 3.26419 8.18064 6.08309 5.71922C8.902 3.25781 12.7253 1.875 16.7118 1.875C20.6983 1.875 24.5216 3.25781 27.3405 5.71922C30.1594 8.18064 31.743 11.519 31.743 15V23.75" stroke="#333333" stroke-width="2" stroke-linecap="round" stroke-linejoin="round"/>
<path d="M31.743 28.125C31.743 28.8985 31.3911 29.6404 30.7647 30.1874C30.1383 30.7344 29.2886 31.0416 28.4028 31.0416H26.7326C25.8467 31.0416 24.9971 30.7344 24.3707 30.1874C23.7443 29.6404 23.3923 28.8985 23.3923 28.125V23.75C23.3923 22.9764 23.7443 22.2346 24.3707 21.6876C24.9971 21.1406 25.8467 20.8333 26.7326 20.8333H31.743V28.125ZM1.68054 28.125C1.68054 28.8985 2.03246 29.6404 2.65889 30.1874C3.28531 30.7344 4.13492 31.0416 5.02082 31.0416H6.69096C7.57685 31.0416 8.42646 30.7344 9.05289 30.1874C9.67931 29.6404 10.0312 28.8985 10.0312 28.125V23.75C10.0312 22.9764 9.67931 22.2346 9.05289 21.6876C8.42646 21.1406 7.57685 20.8333 6.69096 20.8333H1.68054V28.125Z" stroke="#333333" stroke-width="2" stroke-linecap="round" stroke-linejoin="round"/>
</svg>
