<svg width="24" height="23" viewBox="0 0 24 23" fill="none" xmlns="http://www.w3.org/2000/svg">
<path d="M17 1.9165H7C4.23858 1.9165 2 4.06181 2 6.70817V16.2915C2 18.9379 4.23858 21.0832 7 21.0832H17C19.7614 21.0832 22 18.9379 22 16.2915V6.70817C22 4.06181 19.7614 1.9165 17 1.9165Z" stroke="#636262" stroke-width="2" stroke-linecap="round" stroke-linejoin="round"/>
<path d="M16 10.8961C16.1234 11.6936 15.9812 12.5082 15.5937 13.2239C15.2062 13.9395 14.5931 14.5199 13.8416 14.8824C13.0901 15.2449 12.2384 15.3711 11.4077 15.243C10.5771 15.1149 9.80971 14.739 9.21479 14.1689C8.61987 13.5988 8.22768 12.8634 8.09402 12.0673C7.96035 11.2713 8.09202 10.4551 8.47028 9.73491C8.84854 9.0147 9.45414 8.42714 10.2009 8.05578C10.9477 7.68443 11.7977 7.5482 12.63 7.66647C13.4789 7.78711 14.2648 8.1662 14.8716 8.74776C15.4785 9.32932 15.8741 10.0825 16 10.8961Z" stroke="#636262" stroke-width="2" stroke-linecap="round" stroke-linejoin="round"/>
<path d="M17.5 6.229H17.5108" stroke="#636262" stroke-width="2" stroke-linecap="round" stroke-linejoin="round"/>
</svg>
