<svg width="39" height="36" viewBox="0 0 39 36" fill="none" xmlns="http://www.w3.org/2000/svg">
<path d="M37.8055 3.33331V14.3333H27.8055" stroke="#333333" stroke-width="2" stroke-linecap="round" stroke-linejoin="round"/>
<path d="M1.13879 32.6666V21.6666H11.1388" stroke="#333333" stroke-width="2" stroke-linecap="round" stroke-linejoin="round"/>
<path d="M5.32213 12.5C6.16741 9.87244 7.60402 7.52323 9.49791 5.6716C11.3918 3.81996 13.6812 2.52623 16.1526 1.91114C18.624 1.29604 21.1967 1.37962 23.6308 2.15408C26.0648 2.92854 28.2809 4.36864 30.0721 6.34L37.8055 14.3333M1.13879 21.6667L8.87213 29.66C10.6634 31.6314 12.8794 33.0715 15.3135 33.8459C17.7475 34.6204 20.3203 34.704 22.7917 34.0889C25.263 33.4738 27.5525 32.18 29.4464 30.3284C31.3402 28.4768 32.7768 26.1276 33.6221 23.5" stroke="#333333" stroke-width="2" stroke-linecap="round" stroke-linejoin="round"/>
</svg>
