<svg width="44" height="44" viewBox="0 0 44 44" fill="none" xmlns="http://www.w3.org/2000/svg">
<path d="M3.66675 3.66666H6.85676C8.83676 3.66666 10.3951 5.37166 10.2301 7.33332L8.70841 25.5933C8.45175 28.5816 10.8167 31.1483 13.8234 31.1483H33.3484C35.9884 31.1483 38.2984 28.985 38.5001 26.3633L39.4901 12.6133C39.7101 9.57 37.4001 7.09498 34.3384 7.09498H10.6701" stroke="#292D32" stroke-width="1.5" stroke-miterlimit="10" stroke-linecap="round" stroke-linejoin="round"/>
<path d="M29.7917 40.3333C31.0573 40.3333 32.0833 39.3073 32.0833 38.0417C32.0833 36.776 31.0573 35.75 29.7917 35.75C28.526 35.75 27.5 36.776 27.5 38.0417C27.5 39.3073 28.526 40.3333 29.7917 40.3333Z" stroke="#292D32" stroke-width="1.5" stroke-miterlimit="10" stroke-linecap="round" stroke-linejoin="round"/>
<path d="M15.1249 40.3333C16.3906 40.3333 17.4166 39.3073 17.4166 38.0417C17.4166 36.776 16.3906 35.75 15.1249 35.75C13.8593 35.75 12.8333 36.776 12.8333 38.0417C12.8333 39.3073 13.8593 40.3333 15.1249 40.3333Z" stroke="#292D32" stroke-width="1.5" stroke-miterlimit="10" stroke-linecap="round" stroke-linejoin="round"/>
<path d="M16.5 14.6667H38.5" stroke="#292D32" stroke-width="1.5" stroke-miterlimit="10" stroke-linecap="round" stroke-linejoin="round"/>
</svg>
